<?xml version="1.0" encoding="utf-8"?>
<!-- Generator: Adobe Illustrator 16.0.0, SVG Export Plug-In . SVG Version: 6.00 Build 0)  -->
<!DOCTYPE svg PUBLIC "-//W3C//DTD SVG 1.1//EN" "http://www.w3.org/Graphics/SVG/1.1/DTD/svg11.dtd">
<svg version="1.1" id="Layer_1" xmlns="http://www.w3.org/2000/svg" xmlns:xlink="http://www.w3.org/1999/xlink" x="0px" y="0px"
	 width="26px" height="33px" viewBox="0 0 26 33" enable-background="new 0 0 26 33" xml:space="preserve">
<path fill-rule="evenodd" clip-rule="evenodd" fill="#EA2328" d="M0.5,32.552c0-0.574-0.001-0.98,0-1.388
	c0.003-8.851,0.004-17.701,0.009-26.552C0.511,1.797,1.866,0.451,4.688,0.45c5.578-0.001,11.156-0.003,16.734,0.001
	c2.672,0.001,4.074,1.389,4.075,4.041c0.004,9,0.002,17.999,0.002,26.999c0,0.295,0,0.591,0,1.043
	c-0.454-0.169-0.821-0.288-1.175-0.439c-3.516-1.505-7.021-3.034-10.551-4.498c-0.444-0.184-1.095-0.188-1.538-0.005
	C8.736,29.037,5.264,30.55,1.783,32.04C1.413,32.198,1.036,32.339,0.5,32.552z"/>
</svg>
