<?xml version="1.0" encoding="utf-8"?>
<!-- Generator: Adobe Illustrator 16.0.0, SVG Export Plug-In . SVG Version: 6.00 Build 0)  -->
<!DOCTYPE svg PUBLIC "-//W3C//DTD SVG 1.1//EN" "http://www.w3.org/Graphics/SVG/1.1/DTD/svg11.dtd">
<svg version="1.1" id="Layer_1" xmlns="http://www.w3.org/2000/svg" xmlns:xlink="http://www.w3.org/1999/xlink" x="0px" y="0px"
	 width="26px" height="33px" viewBox="0 0 26 33" enable-background="new 0 0 26 33" xml:space="preserve">
<path fill-rule="evenodd" clip-rule="evenodd" fill="#EA2328" d="M0.629,32.496c0-0.574,0-0.98,0-1.388
	c0.004-8.851,0.004-17.701,0.01-26.552c0.002-2.815,1.355-4.161,4.179-4.162c5.578-0.002,11.156-0.003,16.735,0
	c2.671,0.001,4.073,1.389,4.074,4.041c0.004,9,0.002,17.999,0.002,26.999c0,0.295,0,0.591,0,1.043
	c-0.455-0.169-0.822-0.288-1.176-0.439c-3.515-1.505-7.02-3.034-10.551-4.498c-0.444-0.184-1.096-0.188-1.538-0.005
	c-3.499,1.446-6.971,2.959-10.452,4.449C1.543,32.143,1.165,32.283,0.629,32.496z M4.238,27.152
	c1.861-0.806,3.699-1.378,5.299-2.345c2.494-1.506,4.762-1.401,7.23,0.029c1.618,0.937,3.438,1.526,5.232,2.3
	c0-7.782,0-15.425,0-23.1c-5.947,0-11.836,0-17.762,0C4.238,11.725,4.238,19.342,4.238,27.152z"/>
</svg>
